<svg width="154" height="47" viewBox="0 0 154 47" fill="none" xmlns="http://www.w3.org/2000/svg">
<g clip-path="url(#clip0_7_624)">
<path fill-rule="evenodd" clip-rule="evenodd" d="M95.4825 36.4894C86.5878 43.0434 73.6502 46.5352 62.4915 46.5352C46.8585 46.5352 32.8427 40.7871 22.1692 31.2248C21.3606 30.4727 22.0614 29.452 23.0856 30.043C34.5678 36.7043 48.7452 40.6796 63.4079 40.6796C73.2728 40.6796 84.162 38.6383 94.1887 34.3943C95.6981 33.8034 96.938 35.415 95.4825 36.4894Z" fill="#CFCFDE"/>
<path fill-rule="evenodd" clip-rule="evenodd" d="M99.2021 32.2455C98.07 30.795 91.6551 31.5471 88.7981 31.9232C87.9356 32.0306 87.7739 31.2785 88.5825 30.7413C93.7036 27.142 102.059 28.2165 103.029 29.3983C104 30.5802 102.76 38.9606 97.9622 42.9359C97.2075 43.5268 96.5067 43.2045 96.8302 42.3987C97.9083 39.7127 100.334 33.7497 99.2021 32.2455Z" fill="#CFCFDE"/>
<path fill-rule="evenodd" clip-rule="evenodd" d="M88.9598 5.49264V2.0008C88.9598 1.46359 89.3372 1.14126 89.8223 1.14126H105.455C105.94 1.14126 106.372 1.51731 106.372 2.0008V4.95543C106.372 5.43892 105.94 6.08357 105.186 7.15798L97.0998 18.6542C100.119 18.6005 103.299 19.0302 105.994 20.5344C106.587 20.8567 106.749 21.3939 106.803 21.8774V25.5842C106.803 26.1214 106.264 26.7123 105.671 26.39C100.873 23.8651 94.4583 23.5965 89.1755 26.4437C88.6364 26.7123 88.0434 26.1751 88.0434 25.6379V22.0923C88.0434 21.5551 88.0434 20.5881 88.6364 19.7286L98.0162 6.35217H89.8763C89.3911 6.35217 88.9598 5.97612 88.9598 5.49264ZM31.9803 27.142H27.2365C26.8053 27.0883 26.4279 26.766 26.374 26.3362V2.05452C26.374 1.57104 26.8053 1.19499 27.2904 1.19499H31.7108C32.1959 1.19499 32.5194 1.57103 32.5733 2.0008V5.17031H32.6811C33.8132 2.10824 36.0233 0.657781 38.9343 0.657781C41.8992 0.657781 43.7859 2.10824 45.0797 5.17031C46.2117 2.10824 48.8532 0.657781 51.6563 0.657781C53.6509 0.657781 55.8071 1.46359 57.1548 3.34381C58.6642 5.3852 58.3408 8.33984 58.3408 10.9722V26.3362C58.3408 26.8197 57.9095 27.1958 57.4244 27.1958H52.7345C52.2493 27.1421 51.8719 26.766 51.8719 26.3362V13.4433C51.8719 12.4226 51.9798 9.844 51.7641 8.87703C51.3868 7.26541 50.3625 6.78193 48.961 6.78193C47.8289 6.78193 46.5891 7.53403 46.1039 8.7696C45.6187 10.0052 45.6727 12.0466 45.6727 13.4433V26.3362C45.6727 26.8197 45.2414 27.1958 44.7562 27.1958H40.0124C39.5273 27.1421 39.1499 26.766 39.1499 26.3362V13.4433C39.1499 10.7573 39.5812 6.72821 36.239 6.72821C32.8428 6.72821 32.9506 10.5961 32.9506 13.4433V26.3362C32.8967 26.766 32.5194 27.142 31.9803 27.142ZM119.848 0.657781C126.91 0.657781 130.738 6.67449 130.738 14.3565C130.738 21.77 126.533 27.6793 119.848 27.6793C112.948 27.6793 109.175 21.6626 109.175 14.1417C109.121 6.56705 112.948 0.657781 119.848 0.657781ZM119.848 5.65379C116.345 5.65379 116.129 10.4349 116.129 13.3896C116.129 16.3442 116.075 22.6832 119.795 22.6832C123.46 22.6832 123.676 17.5798 123.676 14.464C123.676 12.4226 123.568 9.95146 122.975 8.01752C122.436 6.29845 121.358 5.65379 119.848 5.65379ZM139.848 27.142H135.104C134.619 27.0883 134.242 26.7123 134.242 26.2825V1.94707C134.295 1.51731 134.673 1.14126 135.158 1.14126H139.578C140.01 1.14126 140.333 1.4636 140.441 1.83964V5.54636H140.549C141.896 2.21568 143.729 0.657781 147.017 0.657781C149.12 0.657781 151.222 1.40986 152.57 3.50497C153.81 5.43891 153.81 8.71587 153.81 11.0796V26.39C153.756 26.8197 153.378 27.142 152.893 27.142H148.15C147.718 27.0883 147.341 26.766 147.287 26.39V13.1747C147.287 10.4887 147.61 6.62078 144.322 6.62078C143.19 6.62078 142.112 7.37287 141.573 8.55472C140.926 10.0589 140.818 11.5093 140.818 13.1747V26.2825C140.764 26.766 140.333 27.142 139.848 27.142ZM76.5074 15.5384C76.5074 17.3649 76.5613 18.9228 75.6449 20.5881C74.8902 21.9312 73.7042 22.737 72.3565 22.737C70.5237 22.737 69.4456 21.3402 69.4456 19.2988C69.4456 15.2698 73.0573 14.5177 76.5074 14.5177V15.5384ZM81.3051 27.0883C80.9816 27.3569 80.5504 27.4107 80.173 27.1958C78.6097 25.9065 78.2863 25.2618 77.4238 24.0263C74.8362 26.6586 72.9495 27.4644 69.6073 27.4644C65.6182 27.4644 62.4916 24.9932 62.4916 20.1047C62.4916 16.2368 64.594 13.6582 67.5588 12.3689C70.1464 11.2407 73.7581 11.0259 76.5074 10.7035V10.1126C76.5074 8.98448 76.6152 7.64147 75.9144 6.6745C75.3214 5.81497 74.2433 5.43891 73.273 5.43891C71.4401 5.43891 69.8229 6.35218 69.4456 8.28612C69.3378 8.71588 69.0682 9.14564 68.637 9.14564L64.0549 8.66215C63.6775 8.55471 63.2463 8.28612 63.3541 7.69519C64.4322 2.10824 69.4456 0.442902 73.9737 0.442902C76.2917 0.442902 79.3105 1.03383 81.1434 2.80661C83.4613 4.95543 83.2457 7.85635 83.2457 10.9722V18.3319C83.2457 20.5344 84.1621 21.5014 85.0246 22.737C85.3481 23.1667 85.402 23.7039 85.0246 23.9725C84.0004 24.7783 82.2754 26.2825 81.3051 27.0883ZM14.245 15.5384C14.245 17.3649 14.2989 18.9228 13.3825 20.5881C12.6278 21.9312 11.4418 22.737 10.0941 22.737C8.26131 22.737 7.18318 21.3402 7.18318 19.2988C7.18318 15.2698 10.7949 14.5177 14.245 14.5177V15.5384ZM18.9888 27.0883C18.6653 27.3569 18.2341 27.4107 17.8567 27.1958C16.2934 25.9065 15.97 25.2618 15.1075 24.0263C12.52 26.6586 10.6332 27.4644 7.29099 27.4644C3.30189 27.4644 0.175293 24.9932 0.175293 20.1047C0.175293 16.2368 2.27766 13.6582 5.24253 12.3689C7.83006 11.2407 11.4418 11.0259 14.1911 10.7035V10.1126C14.1911 8.98448 14.2989 7.64147 13.5981 6.6745C13.0051 5.81497 11.927 5.43891 10.9567 5.43891C9.12383 5.43891 7.50662 6.35218 7.12927 8.28612C7.02146 8.71588 6.75192 9.14564 6.32067 9.14564L1.73859 8.66215C1.36124 8.55471 0.929992 8.28612 1.03781 7.69519C2.11594 2.10824 7.12928 0.442902 11.6574 0.442902C13.9754 0.442902 16.9942 1.03383 18.8271 2.80661C21.1451 4.95543 20.9294 7.85635 20.9294 10.9722V18.3319C20.9294 20.5344 21.8458 21.5014 22.7083 22.737C23.0318 23.1667 23.0857 23.7039 22.7083 23.9725C21.6841 24.7783 19.9591 26.2825 18.9888 27.0883Z" fill="#CFCFDE"/>
</g>
<defs>
<clipPath id="clip0_7_624">
<rect width="153.641" height="46.0923" fill="white" transform="matrix(-1 0 0 -1 153.813 46.5352)"/>
</clipPath>
</defs>
</svg>
