<svg width="169" height="56" viewBox="0 0 169 56" fill="none" xmlns="http://www.w3.org/2000/svg">
<g clip-path="url(#clip0_7_611)">
<path d="M20.7271 0.925766H22.2238C27.4197 1.03824 32.5309 3.11894 36.202 6.80236C34.8465 8.18013 33.4628 9.50166 32.1356 10.8794C30.0742 9.02366 27.5891 7.58965 24.8782 7.08354C20.8683 6.24001 16.5478 6.99918 13.1874 9.27671C9.51632 11.6667 7.03131 15.7157 6.49477 20.0458C5.90175 24.3197 7.11602 28.8185 9.91166 32.1364C12.5943 35.3699 16.689 37.3944 20.9248 37.535C24.8782 37.7599 29.0011 36.5509 31.8814 33.7953C34.1405 31.8552 35.1854 28.9028 35.5243 26.0348C30.8366 26.0348 26.149 26.063 21.4613 26.0348V20.2426H41.2002C42.2168 26.4566 40.7484 33.4579 36.0043 37.9005C32.8416 41.0497 28.4646 42.9055 24.0028 43.271C19.6823 43.6927 15.2206 42.8773 11.3801 40.7966C6.77716 38.3504 3.10611 34.2171 1.29883 29.3527C-0.395498 24.882 -0.423737 19.8208 1.15764 15.322C2.59781 11.2168 5.36522 7.58965 8.92331 5.05906C12.3402 2.55659 16.4913 1.17883 20.7271 0.925766Z" fill="#CFCFDE"/>
<path d="M133.965 2.38675H140.008V42.5388C138.003 42.5388 135.97 42.5669 133.965 42.5107C133.993 29.1548 133.965 15.7708 133.965 2.38675Z" fill="#CFCFDE"/>
<path d="M54.6422 16.305C58.3697 15.6021 62.4079 16.3894 65.4859 18.6107C68.2815 20.5789 70.23 23.6718 70.823 27.046C71.5855 30.9543 70.6253 35.2282 68.0839 38.3211C65.3447 41.7796 60.8547 43.6354 56.4777 43.3542C52.4678 43.1293 48.5708 41.1329 46.1988 37.8713C43.5161 34.2722 42.8666 29.3235 44.335 25.1058C45.8034 20.5789 49.9545 17.1204 54.6422 16.305ZM55.4893 21.6474C53.9644 22.041 52.5525 22.9127 51.5359 24.1498C48.7967 27.4115 48.9662 32.7257 51.9877 35.7624C53.7103 37.5057 56.3083 38.3211 58.7086 37.8431C60.9394 37.4495 62.8879 35.9593 63.961 33.991C65.8247 30.645 65.2882 26.0337 62.4361 23.4188C60.6006 21.7317 57.9179 21.0288 55.4893 21.6474Z" fill="#CFCFDE"/>
<path d="M84.5752 16.305C88.8392 15.4896 93.4986 16.6705 96.6896 19.651C101.886 24.2904 102.45 32.9788 98.0168 38.3211C95.3342 41.6953 90.9854 43.551 86.6931 43.3542C82.5985 43.2417 78.5603 41.2173 76.1318 37.8713C73.3926 34.1878 72.7996 29.1267 74.3527 24.8247C75.9059 20.4383 79.9723 17.0923 84.5752 16.305ZM85.4223 21.6474C83.8975 22.041 82.4855 22.9127 81.4689 24.1217C78.758 27.3271 78.871 32.557 81.7795 35.6218C83.5021 37.4495 86.1848 38.3493 88.6698 37.8431C90.8724 37.4214 92.8491 35.9593 93.9222 33.991C95.7577 30.6169 95.2212 26.0056 92.3408 23.3907C90.5053 21.7036 87.8226 21.0288 85.4223 21.6474Z" fill="#CFCFDE"/>
<path d="M109.962 17.9359C113.21 15.9114 117.53 15.349 121.032 17.0923C122.133 17.5703 123.037 18.3857 123.912 19.2011C123.94 18.442 123.912 17.6547 123.94 16.8674C125.832 16.8955 127.724 16.8674 129.645 16.8955V41.6953C129.616 45.4349 128.656 49.3995 125.945 52.1269C122.98 55.1355 118.434 56.0634 114.339 55.4448C109.962 54.7981 106.15 51.6208 104.456 47.6C106.15 46.7846 107.929 46.1379 109.68 45.3787C110.668 47.6843 112.673 49.6526 115.186 50.1024C117.7 50.5523 120.608 49.9337 122.246 47.853C123.997 45.7161 123.997 42.7919 123.912 40.1769C122.613 41.4422 121.116 42.5669 119.309 42.9887C115.384 44.0853 111.063 42.7356 108.042 40.0926C104.992 37.4495 103.185 33.3724 103.354 29.3235C103.439 24.7403 106.037 20.3259 109.962 17.9359ZM115.808 21.5349C114.085 21.8161 112.475 22.7721 111.374 24.0936C108.72 27.2428 108.72 32.2759 111.402 35.3688C112.927 37.1964 115.384 38.2087 117.756 37.9556C119.987 37.7307 122.048 36.3248 123.15 34.3847C125.013 31.0949 124.703 26.6242 122.189 23.7562C120.636 21.9848 118.151 21.1131 115.808 21.5349Z" fill="#CFCFDE"/>
<path d="M147.265 19.3698C150.654 16.2206 155.878 15.1522 160.227 16.8111C164.35 18.3576 166.976 22.2659 168.303 26.2868C162.176 28.8174 156.076 31.3198 149.948 33.8504C150.795 35.4531 152.094 36.9153 153.845 37.5057C156.302 38.3774 159.239 38.0681 161.3 36.4373C162.119 35.8187 162.769 35.0033 163.39 34.216C164.943 35.2563 166.496 36.2686 168.049 37.3089C165.847 40.5987 162.147 42.9043 158.166 43.2699C153.76 43.8041 149.073 42.117 146.221 38.6867C141.533 33.2881 141.985 24.2342 147.265 19.3698ZM150.287 24.5716C149.327 25.9494 148.932 27.6364 148.96 29.2954C153.054 27.6083 157.149 25.9212 161.244 24.2061C160.566 22.6315 158.928 21.6755 157.262 21.4224C154.579 20.9444 151.784 22.3784 150.287 24.5716Z" fill="#CFCFDE"/>
</g>
<defs>
<clipPath id="clip0_7_611">
<rect width="168.303" height="54.6985" fill="white" transform="translate(0 0.9198)"/>
</clipPath>
</defs>
</svg>
