<svg width="132" height="52" viewBox="0 0 132 52" fill="none" xmlns="http://www.w3.org/2000/svg">
<path d="M104.461 16.8328V0.931H107.705V14.6006C106.807 15.052 105.584 15.9048 104.461 16.8328ZM98.8199 21.6235C99.8183 20.4195 100.842 19.2156 102.065 18.1873V0.931H98.8199V21.6235ZM61.2319 34.2647C61.2319 38.5035 62.9041 42.5416 65.9741 45.6267C69.0191 48.6867 73.0374 50.3922 77.2804 50.3922C79.0775 50.3922 80.9244 50.016 82.2223 49.3639V46.1032C80.6998 46.7554 78.8528 47.1316 77.2804 47.1316C70.3419 47.1316 64.5015 41.2625 64.5015 34.2897V31.3552C64.5015 24.3824 70.3668 18.5133 77.2804 18.5133C80.7248 18.5133 83.9444 19.8426 86.3405 22.2505C88.7365 24.6583 90.0594 27.8939 90.0594 31.3552V50.4173H93.304V30.7281C93.1043 26.5646 91.3323 22.6769 88.3372 19.7674C85.3172 16.8579 81.3986 15.2527 77.2804 15.2527C73.0624 15.2527 69.044 16.9332 65.9741 20.0182C62.9291 23.0782 61.2319 27.1164 61.2319 31.3803V34.2647ZM109.802 26.4391C111.274 24.9593 113.171 24.1316 115.043 24.1316C119.062 24.1316 122.181 27.2919 122.181 31.305V34.2396C122.181 38.2777 119.037 41.413 115.043 41.413C113.096 41.413 111.224 40.3344 109.752 38.4031C108.454 36.6976 107.605 34.365 107.481 32.2832L104.86 35.5438C105.384 38.0018 106.657 40.3846 108.479 42.04C110.351 43.7456 112.697 44.6987 115.043 44.6987C120.784 44.6987 125.451 40.0084 125.451 34.2647V31.3301C125.451 28.5962 124.353 25.9877 122.356 24.0062C120.359 21.9997 117.764 20.8961 115.043 20.8961C113.321 20.8961 110.601 21.5231 107.356 24.4577C106.482 25.3356 104.436 27.3923 103.188 28.847C101.091 31.1545 98.0712 34.5907 95.4754 38.0771V43.1687C98.3457 39.4566 99.993 37.3748 102.714 34.2396C105.11 31.3803 108.105 27.9441 109.802 26.4391ZM33.1282 20.2941V16.4315C30.1831 14.8514 26.9883 14.1491 22.7453 14.1491C18.4025 14.1491 14.2843 15.7543 11.1644 18.6387C8.0196 21.5482 6.29744 25.3606 6.29744 29.4239V30.4773C6.29744 38.9048 13.0114 45.7521 21.2977 45.7521C28.0116 45.7521 30.7821 43.5449 31.4809 42.8426V33.0357H20.499V36.2963H28.4359V41.2123H28.411C27.3877 41.6136 25.2662 42.4664 21.2977 42.4664C18.1529 42.4664 15.1828 41.2374 12.9864 38.98C10.7651 36.7227 9.56705 33.7129 9.56705 30.4522V29.3988C9.56705 22.9026 15.6071 17.3846 22.7703 17.3846C27.6872 17.4097 30.6323 18.2374 33.1282 20.2941ZM56.7892 24.1316C58.0122 24.1316 59.0605 24.3323 59.9091 24.7336C60.3084 23.7303 60.7327 22.8775 61.3317 21.8743C60.4582 21.2472 58.3367 20.8459 56.7892 20.8459C50.874 20.8459 46.4063 25.3356 46.4063 31.305V50.3671H49.651V31.305C49.651 27.0913 52.5712 24.1316 56.7892 24.1316ZM0.656738 29.4239V30.4773C0.656738 36.1458 2.8032 41.413 6.67182 45.3508C10.5404 49.2636 15.7319 51.4206 21.2728 51.4206C25.7404 51.4206 29.6839 50.4173 33.0284 48.4108C35.7738 46.7554 36.9968 45.1 37.0967 44.9495V27.3923H20.499V30.6529H33.852V43.9713C32.2796 45.5515 28.5607 48.185 21.2977 48.185C16.5555 48.185 12.1628 46.3541 8.91812 43.0433C5.69843 39.7576 3.92635 35.293 3.92635 30.5024V29.449C3.92635 24.9092 5.94802 20.3944 9.49217 17.0586C13.1112 13.6475 17.8284 11.7663 22.7703 11.7663C27.3877 11.7663 30.5824 12.4686 33.1532 14.0488V10.3617C30.4576 9.20798 27.2379 8.70635 22.7453 8.70635C10.7651 8.70635 0.656738 18.1873 0.656738 29.4239ZM87.6384 50.3671V31.305C87.6384 25.4359 83.0709 20.8459 77.2305 20.8459C74.51 20.8459 71.9143 21.9495 69.9176 23.9561C67.9209 25.9626 66.8227 28.5711 66.8227 31.2799V34.2145C66.8227 39.883 71.5898 44.6485 77.2056 44.6485C78.753 44.6485 80.8495 44.2723 82.1474 43.1938V39.8077C80.8745 40.8361 79.0525 41.438 77.2056 41.438C73.2121 41.438 70.0673 38.2777 70.0673 34.2647V31.3301C70.0673 27.2919 73.2121 24.1567 77.2056 24.1567C81.2239 24.1567 84.3438 27.317 84.3438 31.3301V50.3922H87.6384V50.3671ZM56.7892 18.4632C58.9856 18.4632 60.9074 18.9397 62.6296 19.9179C63.4283 18.8895 64.2519 18.0869 64.8759 17.4599C63.0539 16.0553 59.959 15.2025 56.8142 15.2025C52.2966 15.2025 48.2034 16.8328 45.2832 19.8176C42.388 22.7521 40.7906 26.8405 40.7906 31.3301V50.3922H44.0352V31.3301C44.0103 23.7554 49.2516 18.4632 56.7892 18.4632ZM126.35 19.9681C123.305 16.9081 119.286 15.2025 115.043 15.2025C111.948 15.2025 108.853 16.3563 107.131 17.51C103.587 19.8677 100.692 22.4511 95.4505 29.2483V34.1392C99.8932 28.3203 104.086 23.7554 107.281 21.2221C109.378 19.5417 112.348 18.4882 115.043 18.4882C121.982 18.4882 127.822 24.3824 127.822 31.3301V34.2647C127.822 37.7009 126.474 40.9364 124.028 43.3693C121.607 45.7772 118.413 47.1065 115.043 47.1065C109.353 47.1065 104.336 43.1687 102.988 37.8263L100.692 40.6103C102.364 46.2287 108.404 50.3671 115.043 50.3671C119.286 50.3671 123.28 48.6616 126.35 45.6016C129.395 42.5166 131.092 38.5035 131.092 34.2396V31.305C131.092 27.0662 129.395 23.028 126.35 19.9681Z" fill="#CFCFDE"/>
</svg>
