<svg width="152" height="41" viewBox="0 0 152 41" fill="none" xmlns="http://www.w3.org/2000/svg">
<g clip-path="url(#clip0_7_622)">
<path d="M143.28 19.5213L151.376 40.8142C148.99 40.4757 146.605 40.0516 144.177 39.6696L139.617 27.9045L134.931 38.6984C132.631 38.3164 130.372 38.1892 128.072 37.8926L136.294 19.2681L128.836 0.17897H135.739L139.914 10.8444L144.389 0.17897H151.375L143.28 19.5213ZM123.386 0.17897H117.122V37.0893C119.167 37.2167 121.297 37.3006 123.386 37.5539V0.17897ZM111.711 36.6654C106.002 36.2847 100.292 35.9475 94.4558 35.8188V0.179134H100.846V29.8088C104.511 29.8928 108.174 30.1882 111.711 30.3574V36.6654ZM87.6375 14.6139V20.9625H78.9037V35.3961H72.5994V0.17897H90.4938V6.52753H78.905V14.6141H87.6388L87.6375 14.6139ZM61.8612 6.52753V35.7348C59.7303 35.7348 57.5585 35.7348 55.4697 35.8188V6.52753H48.8656V0.17897H68.5062V6.52753H61.8612ZM41.9641 21.2998C39.1527 21.2998 35.8287 21.2998 33.4428 21.4285V30.8667C37.1921 30.612 40.9414 30.3167 44.7329 30.1895V36.2847L27.0526 37.6826V0.17897H44.7317V6.52753H33.4426V15.0785C35.9145 15.0785 39.7061 14.9513 41.9638 14.9513V21.3011L41.9641 21.2998ZM6.55665 17.7442V39.9243C4.25798 40.1789 2.21148 40.4755 0.0395508 40.8142V0.17897H6.13264L14.44 23.2491V0.17897H20.8315V38.1892C18.5736 38.5712 16.2723 38.6984 13.8441 39.0358L6.55665 17.7442Z" fill="#CFCFDE"/>
</g>
<defs>
<clipPath id="clip0_7_622">
<rect width="151.336" height="40.7149" fill="white" transform="translate(0.0395508 0.138275)"/>
</clipPath>
</defs>
</svg>
